<svg xmlns="http://www.w3.org/2000/svg" xmlns:xlink="http://www.w3.org/1999/xlink" width="500" zoomAndPan="magnify" viewBox="0 0 375 374.999991" height="500" preserveAspectRatio="xMidYMid meet" version="1.0"><defs><g/><clipPath id="464fd6193b"><path d="M 130 100 L 320 100 L 320 290 L 130 290 Z M 130 100 " clip-rule="nonzero"/></clipPath><clipPath id="3396d843e4"><path d="M 252.980469 325.296875 L 94.570312 222.210938 L 207.0625 49.339844 L 365.476562 152.425781 Z M 252.980469 325.296875 " clip-rule="nonzero"/></clipPath><clipPath id="94f8d60842"><path d="M 252.980469 325.296875 L 94.570312 222.210938 L 207.0625 49.339844 L 365.476562 152.425781 Z M 252.980469 325.296875 " clip-rule="nonzero"/></clipPath><clipPath id="0b0c4e3499"><path d="M 254 97 L 296 97 L 296 139 L 254 139 Z M 254 97 " clip-rule="nonzero"/></clipPath><clipPath id="8d4e0cb721"><path d="M 252.980469 325.296875 L 94.570312 222.210938 L 207.0625 49.339844 L 365.476562 152.425781 Z M 252.980469 325.296875 " clip-rule="nonzero"/></clipPath><clipPath id="1402c992db"><path d="M 252.980469 325.296875 L 94.570312 222.210938 L 207.0625 49.339844 L 365.476562 152.425781 Z M 252.980469 325.296875 " clip-rule="nonzero"/></clipPath></defs><rect x="-37.5" width="450" fill="#ffffff" y="-37.499999" height="449.999989" fill-opacity="1"/><rect x="-37.5" width="450" fill="#ffffff" y="-37.499999" height="449.999989" fill-opacity="1"/><g clip-path="url(#464fd6193b)"><g clip-path="url(#3396d843e4)"><g clip-path="url(#94f8d60842)"><path fill="#3a76d9" d="M 276.886719 115.445312 C 320.511719 143.835938 332.917969 202.460938 304.527344 246.085938 C 276.105469 289.765625 217.480469 302.167969 173.851562 273.777344 C 130.222656 245.386719 117.820312 186.761719 146.210938 143.136719 C 174.582031 99.425781 233.210938 87.023438 276.886719 115.445312 Z M 177.390625 268.335938 C 218.003906 294.761719 272.628906 283.207031 299.054688 242.597656 C 325.511719 201.9375 313.921875 147.359375 273.3125 120.933594 C 232.652344 94.476562 178.078125 106.066406 151.652344 146.675781 C 125.175781 187.253906 136.734375 241.878906 177.390625 268.335938 Z M 177.390625 268.335938 " fill-opacity="1" fill-rule="nonzero"/></g></g></g><g clip-path="url(#0b0c4e3499)"><g clip-path="url(#8d4e0cb721)"><g clip-path="url(#1402c992db)"><path fill="#3a76d9" d="M 286.125 101.25 C 295.472656 107.332031 298.117188 119.824219 292.03125 129.171875 C 285.949219 138.523438 273.457031 141.164062 264.105469 135.082031 C 254.757812 128.996094 252.113281 116.503906 258.199219 107.15625 C 264.28125 97.808594 276.773438 95.164062 286.125 101.25 Z M 267.003906 130.628906 C 273.878906 135.105469 283.105469 133.152344 287.582031 126.277344 C 292.054688 119.402344 290.101562 110.175781 283.226562 105.699219 C 276.351562 101.226562 267.125 103.179688 262.652344 110.054688 C 258.175781 116.929688 260.128906 126.15625 267.003906 130.628906 Z M 267.003906 130.628906 " fill-opacity="1" fill-rule="nonzero"/></g></g></g><g fill="#ffffff" fill-opacity="1"><g transform="translate(44.375912, 215.18581)"><g><path d="M 30.515625 0 L 3.96875 0 L 3.96875 -42.734375 L 14.65625 -42.734375 L 14.65625 -9.765625 L 30.515625 -9.765625 Z M 30.515625 0 "/></g></g></g><g fill="#3a76d9" fill-opacity="1"><g transform="translate(104.868095, 215.18581)"><g><path d="M 14.953125 0 L 4.265625 0 L 4.265625 -42.734375 L 14.953125 -42.734375 Z M 14.953125 0 "/></g></g></g><g fill="#3a76d9" fill-opacity="1"><g transform="translate(152.845092, 215.18581)"><g><path d="M 18.1875 0.796875 C 13.0625 0.796875 8.941406 -0.523438 5.828125 -3.171875 C 2.710938 -5.816406 1.113281 -9.644531 1.03125 -14.65625 L 11.59375 -14.65625 C 11.71875 -10.050781 13.894531 -7.75 18.125 -7.75 C 19.957031 -7.75 21.34375 -8.113281 22.28125 -8.84375 C 23.21875 -9.582031 23.6875 -10.582031 23.6875 -11.84375 C 23.6875 -12.820312 23.347656 -13.644531 22.671875 -14.3125 C 22.003906 -14.988281 21.171875 -15.539062 20.171875 -15.96875 C 19.179688 -16.394531 17.726562 -16.929688 15.8125 -17.578125 C 12.957031 -18.515625 10.632812 -19.429688 8.84375 -20.328125 C 7.0625 -21.222656 5.507812 -22.566406 4.1875 -24.359375 C 2.863281 -26.148438 2.203125 -28.46875 2.203125 -31.3125 C 2.203125 -33.675781 2.863281 -35.78125 4.1875 -37.625 C 5.507812 -39.476562 7.359375 -40.925781 9.734375 -41.96875 C 12.117188 -43.007812 14.835938 -43.53125 17.890625 -43.53125 C 20.648438 -43.53125 23.238281 -43.007812 25.65625 -41.96875 C 28.082031 -40.925781 30.054688 -39.316406 31.578125 -37.140625 C 33.109375 -34.960938 33.894531 -32.25 33.9375 -29 L 23.5625 -29 C 23.519531 -30.832031 23.03125 -32.285156 22.09375 -33.359375 C 21.15625 -34.441406 19.753906 -34.984375 17.890625 -34.984375 C 16.378906 -34.984375 15.195312 -34.625 14.34375 -33.90625 C 13.488281 -33.195312 13.0625 -32.253906 13.0625 -31.078125 C 13.0625 -29.691406 13.679688 -28.628906 14.921875 -27.890625 C 16.160156 -27.160156 18.125 -26.367188 20.8125 -25.515625 C 23.664062 -24.578125 26.003906 -23.648438 27.828125 -22.734375 C 29.660156 -21.816406 31.238281 -20.453125 32.5625 -18.640625 C 33.882812 -16.835938 34.546875 -14.488281 34.546875 -11.59375 C 34.546875 -9.320312 33.90625 -7.25 32.625 -5.375 C 31.34375 -3.5 29.46875 -2 27 -0.875 C 24.539062 0.238281 21.601562 0.796875 18.1875 0.796875 Z M 18.1875 0.796875 "/></g></g></g><g fill="#3a76d9" fill-opacity="1"><g transform="translate(217.17844, 215.18581)"><g/></g></g><g fill="#3a76d9" fill-opacity="1"><g transform="translate(263.324505, 215.18581)"><g><path d="M 21.734375 0 L 11.046875 0 L 11.046875 -32.96875 L 0.609375 -32.96875 L 0.609375 -42.734375 L 32.171875 -42.734375 L 32.171875 -32.96875 L 21.734375 -32.96875 Z M 21.734375 0 "/></g></g></g><g fill="#3a76d9" fill-opacity="1"><g transform="translate(247.631327, 173.925253)"><g><path d="M -21.1875 14.34375 L -30.703125 42.734375 L -41.9375 42.734375 L -26.0625 0 L -16.109375 0 L -0.1875 42.734375 L -11.65625 42.734375 Z M -21.1875 14.34375 "/></g></g></g><g fill="#3a76d9" fill-opacity="1"><g transform="translate(55.874225, 215.18581)"><g><path d="M 30.515625 0 L 3.96875 0 L 3.96875 -42.734375 L 14.65625 -42.734375 L 14.65625 -9.765625 L 30.515625 -9.765625 Z M 30.515625 0 "/></g></g></g></svg>